<svg width="16" height="16" viewBox="0 0 16 16" fill="none" xmlns="http://www.w3.org/2000/svg">
<path opacity="0.4" d="M5.99984 6.66667C6.73622 6.66667 7.33317 6.06971 7.33317 5.33333C7.33317 4.59695 6.73622 4 5.99984 4C5.26346 4 4.6665 4.59695 4.6665 5.33333C4.6665 6.06971 5.26346 6.66667 5.99984 6.66667Z" stroke="white" stroke-linecap="round" stroke-linejoin="round"/>
<path d="M8.66683 1.3335H6.00016C2.66683 1.3335 1.3335 2.66683 1.3335 6.00016V10.0002C1.3335 13.3335 2.66683 14.6668 6.00016 14.6668H10.0002C13.3335 14.6668 14.6668 13.3335 14.6668 10.0002V6.66683" stroke="white" stroke-linecap="round" stroke-linejoin="round"/>
<g opacity="0.45">
<path d="M12.7607 1.72693L10.3407 4.14693C10.2474 4.24026 10.1541 4.42026 10.1407 4.5536L10.0074 5.48026C9.96074 5.8136 10.1941 6.04693 10.5274 6.00026L11.4541 5.86693C11.5807 5.84693 11.7674 5.76026 11.8607 5.66693L14.2807 3.24693C14.7007 2.82693 14.8941 2.34693 14.2807 1.7336C13.6607 1.10693 13.1807 1.30693 12.7607 1.72693Z" stroke="white" stroke-miterlimit="10" stroke-linecap="round" stroke-linejoin="round"/>
<path d="M12.4126 2.07324C12.6193 2.80658 13.1926 3.37991 13.9259 3.58658" stroke="white" stroke-miterlimit="10" stroke-linecap="round" stroke-linejoin="round"/>
</g>
<path opacity="0.4" d="M1.77979 12.6335L5.06645 10.4269C5.59312 10.0735 6.35312 10.1135 6.82645 10.5202L7.04645 10.7135C7.56645 11.1602 8.40645 11.1602 8.92645 10.7135L11.6998 8.33354C12.2198 7.88687 13.0598 7.88687 13.5798 8.33354L14.6665 9.26687" stroke="white" stroke-linecap="round" stroke-linejoin="round"/>
</svg>
