<svg width="25" height="24" viewBox="0 0 25 24" fill="none" xmlns="http://www.w3.org/2000/svg">
<g clip-path="url(#clip0_155_1939)">
<path fill-rule="evenodd" clip-rule="evenodd" d="M24.4332 7.48654C24.4334 7.48654 24.4335 7.48639 24.4335 7.4862C24.4335 7.20044 24.4335 6.91468 24.4322 6.62892C24.4309 6.38825 24.4282 6.14759 24.4216 5.90692C24.4076 5.38238 24.3763 4.85385 24.2833 4.33529C24.1889 3.80875 24.034 3.31878 23.7906 2.84011C23.5513 2.37008 23.2388 1.94061 22.8659 1.56765C22.4929 1.19468 22.0628 0.882216 21.5927 0.642881C21.1147 0.399557 20.6248 0.245319 20.0989 0.150249C19.5803 0.0571745 19.0511 0.025928 18.5266 0.0119668C18.2859 0.00531856 18.0453 0.00265928 17.8046 0.00132964C17.5187 0 17.2329 0 16.947 0H7.98654C7.70066 0 7.41479 0 7.12892 0.00132964C6.88825 0.00265928 6.64759 0.00531856 6.40692 0.0119668C5.88238 0.0265928 5.35319 0.0571745 4.83463 0.150914C4.30809 0.245319 3.81878 0.400222 3.34078 0.643546C2.87075 0.882881 2.44061 1.19535 2.06765 1.56831C1.69468 1.94127 1.38222 2.37075 1.14288 2.84078C0.899557 3.31945 0.744654 3.80942 0.650249 4.33596C0.557175 4.85452 0.525928 5.38371 0.511967 5.90759C0.505319 6.14825 0.502659 6.38892 0.50133 6.62958C0.5 6.91479 0.5 7.20066 0.5 7.48654V16.4463C0.5 16.7322 0.5 17.0181 0.50133 17.3039C0.502659 17.5446 0.505319 17.7853 0.511967 18.0259C0.525928 18.5505 0.557175 19.079 0.650249 19.5976C0.744654 20.1241 0.899557 20.6141 1.14288 21.0927C1.38222 21.5628 1.69468 21.9922 2.06765 22.3652C2.44061 22.7382 2.87075 23.0506 3.34078 23.29C3.81878 23.5333 4.30875 23.6875 4.83463 23.7826C5.35319 23.8757 5.88238 23.9069 6.40692 23.9209C6.64759 23.9275 6.88825 23.9302 7.12892 23.9315C7.41479 23.9335 7.70066 23.9329 7.98654 23.9329H16.9463C17.2322 23.9329 17.5181 23.9329 17.8039 23.9315C18.0446 23.9302 18.2853 23.9275 18.5259 23.9209C19.0505 23.9069 19.5797 23.8757 20.0982 23.7826C20.6248 23.6882 21.1141 23.5333 21.5921 23.29C22.0621 23.0506 22.4922 22.7382 22.8652 22.3652C23.2382 21.9922 23.5506 21.5628 23.79 21.0927C24.0333 20.6141 24.1882 20.1241 24.2826 19.5976C24.3757 19.079 24.4069 18.5498 24.4209 18.0259C24.4275 17.7853 24.4302 17.5446 24.4315 17.3039C24.4335 17.0181 24.4329 16.7322 24.4329 16.4463V7.48687C24.4329 7.48669 24.433 7.48654 24.4332 7.48654Z" fill="url(#paint0_linear_155_1939)"/>
<path fill-rule="evenodd" clip-rule="evenodd" d="M17.4197 3.65673C17.3619 3.66205 16.848 3.75313 16.7861 3.76576L9.67256 5.20111L9.6699 5.20177C9.48442 5.241 9.33882 5.30682 9.22647 5.40122C9.09085 5.5149 9.01572 5.67579 8.98713 5.86327C8.98115 5.90316 8.97118 5.98427 8.97118 6.10394C8.97118 6.10394 8.97118 13.3717 8.97118 15.0072C8.97118 15.2153 8.95456 15.4174 8.81362 15.5896C8.67267 15.7618 8.49849 15.8136 8.29439 15.8548C8.13949 15.8861 7.98459 15.9173 7.82968 15.9486C7.24198 16.0669 6.85971 16.1474 6.51334 16.2817C6.18226 16.41 5.93428 16.5735 5.73683 16.7809C5.34525 17.1911 5.18636 17.7476 5.24087 18.2688C5.28741 18.7136 5.48752 19.1391 5.83123 19.4535C6.06326 19.6663 6.35312 19.8278 6.69483 19.8963C7.04918 19.9674 7.4268 19.9428 7.9786 19.8311C8.27245 19.772 8.54769 19.6796 8.80963 19.5247C9.06891 19.3717 9.29096 19.1676 9.46447 18.919C9.63866 18.6697 9.75101 18.3925 9.81284 18.098C9.87666 17.7941 9.89195 17.5196 9.89195 17.2164V9.49452C9.89195 9.081 10.009 8.97197 10.3427 8.89086C10.3427 8.89086 16.2556 7.69817 16.5315 7.64432C16.9164 7.57053 17.0979 7.68022 17.0979 8.08377V13.3551C17.0979 13.5639 17.0959 13.7753 16.9537 13.9481C16.8127 14.1203 16.6385 14.1722 16.4344 14.2134C16.2795 14.2447 16.1246 14.2759 15.9697 14.3071C15.382 14.4255 14.9998 14.5059 14.6534 14.6402C14.3223 14.7685 14.0743 14.9321 13.8769 15.1395C13.4853 15.5497 13.3125 16.1062 13.367 16.6274C13.4135 17.0721 13.6276 17.4976 13.9713 17.8121C14.2033 18.0248 14.4932 18.1817 14.8349 18.2509C15.1892 18.322 15.5669 18.2967 16.1187 18.1857C16.4125 18.1265 16.6877 18.0381 16.9497 17.8832C17.209 17.7303 17.431 17.5262 17.6045 17.2776C17.7787 17.0283 17.8911 16.751 17.9529 16.4565C18.0167 16.1527 18.0194 15.8781 18.0194 15.575V4.28565C18.0207 3.87612 17.8046 3.62349 17.4197 3.65673Z" fill="white"/>
</g>
<defs>
<linearGradient id="paint0_linear_155_1939" x1="12.4668" y1="23.8408" x2="12.4668" y2="0.515806" gradientUnits="userSpaceOnUse">
<stop stop-color="#FA233B"/>
<stop offset="1" stop-color="#FB5C74"/>
</linearGradient>
<clipPath id="clip0_155_1939">
<rect x="0.5" width="24" height="24" rx="12" fill="white"/>
</clipPath>
</defs>
</svg>
