<svg width="24" height="24" viewBox="0 0 24 24" fill="none" xmlns="http://www.w3.org/2000/svg">
<g clip-path="url(#clip0_155_2055)">
<path d="M20.4 0H3.6C1.61177 0 0 1.61177 0 3.6V20.4C0 22.3882 1.61177 24 3.6 24H20.4C22.3882 24 24 22.3882 24 20.4V3.6C24 1.61177 22.3882 0 20.4 0Z" fill="url(#paint0_linear_155_2055)"/>
<path d="M13.7344 13.7813C13.3594 13.4063 12.7501 13.172 12.0001 13.172C11.2501 13.172 10.6407 13.4063 10.2657 13.7813C10.0782 14.0157 9.98445 14.2032 9.93757 14.4845C9.8907 15.047 9.93757 15.5157 9.98445 16.3126C10.1203 17.6812 10.3237 19.0422 10.5938 20.3907C10.7344 20.8126 11.2501 21.2345 12.0001 21.2345C12.7969 21.2345 13.2657 20.8126 13.4063 20.3907C13.765 18.44 13.9843 16.4663 14.0626 14.4845C14.0157 14.2032 13.9219 14.0157 13.7344 13.7813ZM10.0313 10.4063C10.0313 10.9285 10.2387 11.4292 10.608 11.7985C10.9772 12.1677 11.4779 12.3751 12.0001 12.3751C12.5222 12.3751 13.023 12.1677 13.3922 11.7985C13.7614 11.4292 13.9688 10.9285 13.9688 10.4063C13.9688 9.8842 13.7614 9.38344 13.3922 9.01423C13.023 8.64501 12.5222 8.43759 12.0001 8.43759C11.4779 8.43759 10.9772 8.64501 10.608 9.01423C10.2387 9.38344 10.0313 9.8842 10.0313 10.4063ZM12.0001 2.67197C10.0027 2.66259 8.06679 3.3621 6.53675 4.64604C5.00671 5.92998 3.98176 7.71508 3.64428 9.68374C3.30679 11.6524 3.67865 13.677 4.69369 15.3972C5.70874 17.1174 7.30113 18.4218 9.18757 19.0782C9.28132 19.0782 9.37507 19.0313 9.37507 18.9376L9.23445 18.0938C9.23445 17.9532 9.1407 17.9063 9.04695 17.8595C7.4991 17.1814 6.23177 15.9912 5.45785 14.489C4.68393 12.9868 4.45057 11.264 4.79698 9.60999C5.14339 7.95601 6.04845 6.47163 7.36013 5.4062C8.67182 4.34077 10.3102 3.75921 12.0001 3.75921C13.6899 3.75921 15.3283 4.34077 16.64 5.4062C17.9517 6.47163 18.8568 7.95601 19.2032 9.60999C19.5496 11.264 19.3162 12.9868 18.5423 14.489C17.7684 15.9912 16.501 17.1814 14.9532 17.8595C14.8594 17.9063 14.7657 17.9532 14.7657 18.0938L14.6251 18.9376C14.6251 19.0313 14.7188 19.0782 14.8126 19.0782C16.699 18.4218 18.2914 17.1174 19.3064 15.3972C20.3215 13.677 20.6933 11.6524 20.3559 9.68374C20.0184 7.71508 18.9934 5.92998 17.4634 4.64604C15.9333 3.3621 13.9974 2.66259 12.0001 2.67197ZM11.8126 6.51572C12.7447 6.48225 13.6649 6.73332 14.4509 7.23553C15.2368 7.73775 15.8513 8.46732 16.2126 9.32723C16.5738 10.1871 16.6648 11.1367 16.4733 12.0495C16.2819 12.9624 15.817 13.7953 15.1407 14.4376C15.0469 14.4845 15.0001 14.6251 15.0469 14.7188L15.0001 15.6563C15.0001 15.7501 15.0938 15.8438 15.1876 15.7501C16.1859 15.061 16.937 14.07 17.3306 12.9226C17.7242 11.7751 17.7395 10.5317 17.3744 9.37494C17.0092 8.21814 16.2828 7.20888 15.3018 6.49535C14.3208 5.78181 13.1369 5.40159 11.9239 5.41051C10.7108 5.41943 9.53264 5.81702 8.56223 6.5449C7.59182 7.27279 6.88033 8.29261 6.53224 9.45466C6.18414 10.6167 6.21778 11.8597 6.6282 13.0012C7.03863 14.1428 7.80422 15.1226 8.81257 15.797C8.90632 15.8438 9.00007 15.7501 9.00007 15.6563V14.7188C9.00007 14.6251 8.9532 14.4845 8.85945 14.4376C8.18284 13.8271 7.70527 13.0275 7.48869 12.1423C7.2721 11.2571 7.32649 10.3273 7.6448 9.47342C7.96311 8.61954 8.53066 7.88101 9.27382 7.35361C10.017 6.82622 10.9015 6.5343 11.8126 6.51572Z" fill="white"/>
</g>
<defs>
<linearGradient id="paint0_linear_155_2055" x1="0" y1="2400" x2="0" y2="0" gradientUnits="userSpaceOnUse">
<stop stop-color="#832BC1"/>
<stop offset="1" stop-color="#F452FF"/>
</linearGradient>
<clipPath id="clip0_155_2055">
<rect width="24" height="24" rx="12" fill="white"/>
</clipPath>
</defs>
</svg>
