<svg width="24" height="24" viewBox="0 0 24 24" fill="none" xmlns="http://www.w3.org/2000/svg">
<g clip-path="url(#clip0_155_1950)">
<path fill-rule="evenodd" clip-rule="evenodd" d="M12 24C18.6274 24 24 18.6274 24 12C24 5.37258 18.6274 0 12 0C5.37258 0 0 5.37258 0 12C0 18.6274 5.37258 24 12 24Z" fill="#0086CD"/>
<path fill-rule="evenodd" clip-rule="evenodd" d="M17.6448 11.1024C17.6576 11.3777 17.6776 11.6452 17.6813 11.9129C17.725 14.9919 15.6888 17.649 12.6843 18.4068C10.6328 18.9242 8.67042 18.6691 6.88503 17.48C5.29662 16.4221 4.35576 14.9155 4.07479 13.0096C3.56199 9.5311 5.7338 6.33218 9.13303 5.53619C10.3147 5.25946 11.494 5.26425 12.6714 5.56185C12.7111 5.5719 12.7504 5.58405 12.7959 5.59691V9.46612C12.5547 9.3899 12.319 9.29311 12.0741 9.24182C10.8438 8.98425 9.75394 9.30098 8.8047 10.114C8.24094 10.5968 7.83369 11.195 7.66237 11.9321C7.4145 12.9987 7.8541 13.9674 8.82529 14.4571C9.86225 14.98 10.9204 14.9583 11.9599 14.4702C12.9411 14.0095 13.6455 13.2694 13.9745 12.2117C14.0588 11.9409 14.0857 11.6423 14.0874 11.3562C14.0974 9.65089 14.0924 7.94554 14.0924 6.24021V6.07708C14.2976 6.19423 14.4853 6.29092 14.6625 6.40432C15.438 6.9005 16.2255 7.37404 17.0703 7.74224C17.6625 8.00036 18.2697 8.21044 18.9124 8.29457C19.1094 8.32038 19.3093 8.32767 19.5082 8.33299C19.7848 8.34037 19.9455 8.49838 19.9536 8.78057C19.9609 9.03718 19.8771 9.26871 19.7558 9.4861C19.3155 10.2748 18.642 10.769 17.8039 11.0518C17.7493 11.0702 17.6941 11.0868 17.6448 11.1024Z" fill="white"/>
</g>
<defs>
<clipPath id="clip0_155_1950">
<rect width="24" height="24" fill="white"/>
</clipPath>
</defs>
</svg>
