<svg width="20" height="20" viewBox="0 0 20 20" fill="none" xmlns="http://www.w3.org/2000/svg">
<g opacity="0.75">
<path d="M17.5 12.5V5" stroke="#CACACA" stroke-width="1.25" stroke-linecap="round" stroke-linejoin="round"/>
<path d="M15.4168 15.0002C15.9694 15.0002 16.4993 14.7807 16.89 14.39C17.2807 13.9993 17.5002 13.4694 17.5002 12.9168C17.5002 12.3643 17.2807 11.8344 16.89 11.4437C16.4993 11.053 15.9694 10.8335 15.4168 10.8335C14.8643 10.8335 14.3344 11.053 13.9437 11.4437C13.553 11.8344 13.3335 12.3643 13.3335 12.9168C13.3335 13.4694 13.553 13.9993 13.9437 14.39C14.3344 14.7807 14.8643 15.0002 15.4168 15.0002Z" stroke="#CACACA" stroke-width="1.25" stroke-linecap="round" stroke-linejoin="round"/>
<path d="M10 10H2.5" stroke="#CACACA" stroke-width="1.25" stroke-linecap="round" stroke-linejoin="round"/>
<path d="M13.3333 5H2.5" stroke="#CACACA" stroke-width="1.25" stroke-linecap="round" stroke-linejoin="round"/>
<path d="M10 15H2.5" stroke="#CACACA" stroke-width="1.25" stroke-linecap="round" stroke-linejoin="round"/>
</g>
</svg>
