<svg width="25" height="24" viewBox="0 0 25 24" fill="none" xmlns="http://www.w3.org/2000/svg">
<path opacity="0.4" d="M16.4302 2H8.05023C4.41023 2 2.24023 4.17 2.24023 7.81V16.18C2.24023 19.83 4.41023 22 8.05023 22H16.4202C20.0602 22 22.2302 19.83 22.2302 16.19V7.81C22.2402 4.17 20.0702 2 16.4302 2Z" fill="#CACACA"/>
<path d="M9.33984 12V10.52C9.33984 8.60999 10.6898 7.83999 12.3398 8.78999L13.6198 9.52999L14.8998 10.27C16.5498 11.22 16.5498 12.78 14.8998 13.73L13.6198 14.47L12.3398 15.21C10.6898 16.16 9.33984 15.38 9.33984 13.48V12Z" fill="#CACACA"/>
</svg>
