<svg width="24" height="24" viewBox="0 0 24 24" fill="none" xmlns="http://www.w3.org/2000/svg">
<g clip-path="url(#clip0_155_2025)">
<path d="M12.0001 0.600098C5.70394 0.600098 0.600098 5.71762 0.600098 12.0303C1.20058 27.1923 22.8018 27.188 23.4001 12.0301C23.4001 5.71762 18.296 0.600098 12.0001 0.600098ZM12.0001 18.5759C8.39146 18.5759 5.4553 15.6399 5.4553 12.0311C5.6329 7.55218 8.97226 5.5189 11.9999 5.5189H12.0003C15.0282 5.51914 18.3678 7.55242 18.5444 12.0164C18.5449 15.6402 15.6087 18.5759 12.0001 18.5759Z" fill="#FF0000"/>
<path d="M12.0008 6.26465C8.17373 6.26441 6.31181 9.26129 6.20117 12.0458C6.20141 15.2286 8.80277 17.83 12.0003 17.83C15.1978 17.83 17.7992 15.2286 17.7992 12.0311C17.6895 9.26177 15.8278 6.26513 12.0008 6.26465Z" fill="#FF0000"/>
<path d="M9.8531 12.6068C9.85286 13.2248 9.85334 14.4948 9.8531 15.1172L15.0856 11.8971L9.8531 8.94531V12.6068Z" fill="#F1F1F1"/>
</g>
<defs>
<clipPath id="clip0_155_2025">
<rect width="24" height="24" fill="white"/>
</clipPath>
</defs>
</svg>
