<svg width="171" height="164" viewBox="0 0 171 164" fill="none" xmlns="http://www.w3.org/2000/svg">
<g opacity="0.1" clip-path="url(#clip0_155_1711)">
<path fill-rule="evenodd" clip-rule="evenodd" d="M193.463 60.5162C193.463 58.2054 193.463 55.8946 193.452 53.5838C193.441 51.6384 193.42 49.693 193.366 47.7476C193.253 43.5076 193 39.2353 192.248 35.0436C191.485 30.7874 190.233 26.8268 188.266 22.9576C186.331 19.1582 183.806 15.6866 180.791 12.6718C177.776 9.65701 174.299 7.13125 170.5 5.19662C166.636 3.22975 162.675 1.98299 158.424 1.21452C154.233 0.462161 149.955 0.209584 145.715 0.0967313C143.77 0.0429917 141.824 0.0214958 139.879 0.0107479C137.568 0 135.257 0 132.946 0H60.5162C58.2054 0 55.8946 0 53.5838 0.0107479C51.6384 0.0214958 49.693 0.0429917 47.7476 0.0967313C43.5076 0.214958 39.2299 0.462161 35.0382 1.21989C30.782 1.98299 26.8268 3.23512 22.9629 5.20199C19.1635 7.13662 15.6866 9.66238 12.6718 12.6772C9.65701 15.692 7.13125 19.1635 5.19662 22.9629C3.22975 26.8322 1.97762 30.7928 1.21452 35.049C0.462161 39.2407 0.209584 43.5183 0.0967313 47.753C0.0429917 49.6984 0.0214958 51.6438 0.0107479 53.5891C0 55.8946 0 58.2054 0 60.5162V132.941C0 135.252 0 137.563 0.0107479 139.873C0.0214958 141.819 0.0429917 143.764 0.0967313 145.71C0.209584 149.95 0.462161 154.222 1.21452 158.414C1.97762 162.67 3.22975 166.63 5.19662 170.5C7.13125 174.299 9.65701 177.771 12.6718 180.785C15.6866 183.8 19.1635 186.326 22.9629 188.261C26.8268 190.227 30.7874 191.474 35.0382 192.243C39.2299 192.995 43.5076 193.248 47.7476 193.361C49.693 193.414 51.6384 193.436 53.5838 193.446C55.8946 193.463 58.2054 193.457 60.5162 193.457H132.941C135.252 193.457 137.563 193.457 139.873 193.446C141.819 193.436 143.764 193.414 145.71 193.361C149.95 193.248 154.227 192.995 158.419 192.243C162.675 191.48 166.63 190.227 170.494 188.261C174.294 186.326 177.771 183.8 180.785 180.785C183.8 177.771 186.326 174.299 188.261 170.5C190.227 166.63 191.48 162.67 192.243 158.414C192.995 154.222 193.248 149.944 193.361 145.71C193.414 143.764 193.436 141.819 193.446 139.873C193.463 137.563 193.457 135.252 193.457 132.941V60.5162H193.463Z" fill="url(#paint0_linear_155_1711)" fill-opacity="0.4"/>
<path fill-rule="evenodd" clip-rule="evenodd" d="M136.768 29.5568C136.3 29.5998 132.146 30.3361 131.646 30.4382L74.1447 42.0406L74.1232 42.0459C72.6239 42.363 71.447 42.895 70.5388 43.6581C69.4425 44.5771 68.8353 45.8776 68.6042 47.393C68.5558 47.7155 68.4752 48.3711 68.4752 49.3384C68.4752 49.3384 68.4752 108.087 68.4752 121.306C68.4752 122.989 68.3408 124.622 67.2016 126.014C66.0623 127.406 64.6543 127.825 63.0045 128.158C61.7524 128.411 60.5002 128.663 59.2481 128.916C54.4975 129.873 51.4075 130.523 48.6077 131.608C45.9314 132.646 43.9269 133.968 42.3309 135.644C39.1656 138.96 37.8812 143.458 38.3219 147.671C38.6981 151.266 40.3156 154.706 43.094 157.248C44.9695 158.967 47.3125 160.273 50.0748 160.827C52.9391 161.402 55.9915 161.203 60.4519 160.3C62.8272 159.822 65.052 159.075 67.1693 157.823C69.2652 156.587 71.0601 154.937 72.4627 152.927C73.8707 150.912 74.7789 148.671 75.2786 146.29C75.7945 143.834 75.9181 141.615 75.9181 139.164V76.7456C75.9181 73.403 76.8639 72.5217 79.5617 71.866C79.5617 71.866 127.358 62.2252 129.588 61.7899C132.699 61.1934 134.167 62.0801 134.167 65.342V107.952C134.167 109.64 134.15 111.349 133 112.746C131.861 114.138 130.453 114.557 128.803 114.89C127.551 115.143 126.299 115.395 125.047 115.648C120.296 116.604 117.206 117.255 114.406 118.34C111.73 119.377 109.726 120.699 108.13 122.376C104.964 125.692 103.567 130.19 104.008 134.403C104.384 137.998 106.114 141.437 108.893 143.979C110.768 145.699 113.111 146.967 115.874 147.526C118.738 148.101 121.79 147.897 126.251 146.999C128.626 146.521 130.851 145.806 132.968 144.554C135.064 143.318 136.859 141.668 138.261 139.659C139.669 137.643 140.578 135.402 141.077 133.022C141.593 130.566 141.615 128.346 141.615 125.896V34.6406C141.626 31.3303 139.879 29.2881 136.768 29.5568Z" fill="white" fill-opacity="0.4"/>
</g>
<defs>
<linearGradient id="paint0_linear_155_1711" x1="96.7313" y1="192.713" x2="96.7313" y2="4.16943" gradientUnits="userSpaceOnUse">
<stop stop-color="#FA233B"/>
<stop offset="1" stop-color="#FB5C74"/>
</linearGradient>
<clipPath id="clip0_155_1711">
<rect width="194" height="194" fill="white"/>
</clipPath>
</defs>
</svg>
