<svg width="28" height="28" viewBox="0 0 28 28" fill="none" xmlns="http://www.w3.org/2000/svg">
<path d="M23.3333 9.3335C25.9106 9.3335 28 7.24412 28 4.66675C28 2.08937 25.9106 0 23.3333 0C20.7559 0 18.6665 2.08937 18.6665 4.66675C18.6665 7.24412 20.7559 9.3335 23.3333 9.3335Z" fill="white"/>
<path opacity="0.4" d="M22.1668 11.0833C19.2735 11.0833 16.9168 8.72667 16.9168 5.83333C16.9168 4.99333 17.1385 4.21167 17.4885 3.5H8.7735C4.7485 3.5 2.3335 5.90333 2.3335 9.94V19.215C2.3335 23.2633 4.7485 25.6667 8.7735 25.6667H18.0485C22.0852 25.6667 24.4885 23.2633 24.4885 19.2267V10.5117C23.7885 10.8617 23.0068 11.0833 22.1668 11.0833Z" fill="white"/>
<path d="M13.7083 16.3335H7.875C7.39667 16.3335 7 15.9368 7 15.4585C7 14.9802 7.39667 14.5835 7.875 14.5835H13.7083C14.1867 14.5835 14.5833 14.9802 14.5833 15.4585C14.5833 15.9368 14.1867 16.3335 13.7083 16.3335Z" fill="white"/>
<path d="M18.375 21H7.875C7.39667 21 7 20.6033 7 20.125C7 19.6467 7.39667 19.25 7.875 19.25H18.375C18.8533 19.25 19.25 19.6467 19.25 20.125C19.25 20.6033 18.8533 21 18.375 21Z" fill="white"/>
</svg>
