<svg width="16" height="16" viewBox="0 0 16 16" fill="none" xmlns="http://www.w3.org/2000/svg">
<path opacity="0.4" d="M14.0533 5.72019V10.2802C14.0533 11.0268 13.6533 11.7202 13.0066 12.1002L9.04661 14.3869C8.39994 14.7602 7.59995 14.7602 6.94661 14.3869L2.98661 12.1002C2.33995 11.7269 1.93994 11.0335 1.93994 10.2802V5.72019C1.93994 4.97352 2.33995 4.28016 2.98661 3.90016L6.94661 1.6135C7.59328 1.24016 8.39328 1.24016 9.04661 1.6135L13.0066 3.90016C13.6533 4.28016 14.0533 4.96685 14.0533 5.72019Z" fill="white"/>
<path d="M6.5 8.00026V7.20025C6.5 6.17359 7.22668 5.75361 8.11334 6.26694L8.80666 6.66693L9.5 7.06691C10.3867 7.58024 10.3867 8.42028 9.5 8.93361L8.80666 9.33359L8.11334 9.73358C7.22668 10.2469 6.5 9.82694 6.5 8.80027V8.00026Z" fill="white"/>
</svg>
