<svg width="173" height="168" viewBox="0 0 173 168" fill="none" xmlns="http://www.w3.org/2000/svg">
<g opacity="0.1" clip-path="url(#clip0_155_1659)">
<path fill-rule="evenodd" clip-rule="evenodd" d="M154.23 86.3299C123.19 67.8999 71.295 65.96 41.71 75.175C36.86 76.63 32.01 73.72 30.555 69.355C29.1 64.505 32.01 59.655 36.375 58.2C70.81 48.015 127.555 49.9551 163.445 71.2951C167.81 73.7201 169.265 79.54 166.84 83.905C164.415 87.3 158.595 88.7549 154.23 86.3299ZM153.26 113.49C150.835 116.885 146.47 118.34 143.075 115.915C116.885 99.91 77.115 95.0601 46.56 104.76C42.68 105.73 38.315 103.79 37.345 99.91C36.375 96.03 38.315 91.665 42.195 90.695C77.6 80.025 121.25 85.36 151.32 103.79C154.23 105.245 155.685 110.095 153.26 113.49ZM141.62 140.165C139.68 143.075 136.285 144.045 133.375 142.105C110.58 128.04 81.965 125.13 48.015 132.89C44.62 133.86 41.71 131.435 40.74 128.525C39.77 125.13 42.195 122.22 45.105 121.25C81.965 113.005 113.975 116.4 139.195 131.92C142.59 133.375 143.075 137.255 141.62 140.165ZM97 0C43.65 0 0 43.65 0 97C0 150.35 43.65 194 97 194C150.35 194 194 150.35 194 97C194 43.65 150.835 0 97 0Z" fill="#00DA5A" fill-opacity="0.4"/>
</g>
<defs>
<clipPath id="clip0_155_1659">
<rect width="194" height="194" fill="white"/>
</clipPath>
</defs>
</svg>
