<svg width="20" height="20" viewBox="0 0 20 20" fill="none" xmlns="http://www.w3.org/2000/svg">
<path opacity="0.4" d="M14.9997 6.66669V10.1792C14.9981 10.2425 14.9725 10.3028 14.9281 10.348C14.8837 10.3932 14.8238 10.4198 14.7605 10.4225C13.5887 10.486 12.4855 10.9957 11.6777 11.8469C10.8698 12.6982 10.4185 13.8264 10.4164 15C10.415 15.4519 10.4819 15.9014 10.6147 16.3334C10.628 16.3709 10.6321 16.411 10.6267 16.4505C10.6213 16.4899 10.6066 16.5275 10.5838 16.5601C10.561 16.5927 10.5307 16.6194 10.4955 16.6379C10.4603 16.6564 10.4212 16.6663 10.3814 16.6667H4.9997C4.66011 16.7151 4.31391 16.6839 3.98849 16.5754C3.66308 16.4669 3.36739 16.2841 3.12483 16.0416C2.88228 15.799 2.69951 15.5033 2.59101 15.1779C2.48251 14.8525 2.45124 14.5063 2.4997 14.1667V4.16669C2.45124 3.8271 2.48251 3.4809 2.59101 3.15548C2.69951 2.83007 2.88228 2.53438 3.12483 2.29183C3.36739 2.04927 3.66308 1.86651 3.98849 1.758C4.31391 1.6495 4.66011 1.61824 4.9997 1.66669H9.9997V4.16669C9.9997 4.82973 10.2631 5.46561 10.7319 5.93446C11.2008 6.4033 11.8367 6.66669 12.4997 6.66669H14.9997Z" fill="white"/>
<path d="M12.4997 6.6665H14.9997L9.9997 1.6665V4.1665C9.95124 4.50609 9.98251 4.8523 10.091 5.17771C10.1995 5.50312 10.3823 5.79881 10.6248 6.04137C10.8674 6.28392 11.1631 6.46669 11.4885 6.57519C11.8139 6.68369 12.1601 6.71496 12.4997 6.6665Z" fill="white"/>
<path d="M11.6663 9.7915H5.83301C5.66725 9.7915 5.50828 9.72566 5.39107 9.60845C5.27386 9.49124 5.20801 9.33226 5.20801 9.1665C5.20801 9.00074 5.27386 8.84177 5.39107 8.72456C5.50828 8.60735 5.66725 8.5415 5.83301 8.5415H11.6663C11.8321 8.5415 11.9911 8.60735 12.1083 8.72456C12.2255 8.84177 12.2913 9.00074 12.2913 9.1665C12.2913 9.33226 12.2255 9.49124 12.1083 9.60845C11.9911 9.72566 11.8321 9.7915 11.6663 9.7915ZM9.79134 12.4998C9.79134 12.3341 9.72549 12.1751 9.60828 12.0579C9.49107 11.9407 9.3321 11.8748 9.16634 11.8748H5.83301C5.66725 11.8748 5.50828 11.9407 5.39107 12.0579C5.27386 12.1751 5.20801 12.3341 5.20801 12.4998C5.20801 12.6656 5.27386 12.8246 5.39107 12.9418C5.50828 13.059 5.66725 13.1248 5.83301 13.1248H9.16634C9.3321 13.1248 9.49107 13.059 9.60828 12.9418C9.72549 12.8246 9.79134 12.6656 9.79134 12.4998Z" fill="white"/>
<path d="M15.0003 11.6665C14.3411 11.6665 13.6966 11.862 13.1484 12.2283C12.6003 12.5945 12.173 13.1151 11.9207 13.7242C11.6684 14.3333 11.6024 15.0035 11.731 15.6501C11.8597 16.2967 12.1771 16.8907 12.6433 17.3569C13.1095 17.823 13.7034 18.1405 14.35 18.2691C14.9966 18.3977 15.6669 18.3317 16.2759 18.0794C16.885 17.8271 17.4056 17.3999 17.7719 16.8517C18.1382 16.3036 18.3337 15.6591 18.3337 14.9998C18.3337 14.1158 17.9825 13.2679 17.3574 12.6428C16.7322 12.0177 15.8844 11.6665 15.0003 11.6665ZM16.042 15.4165H15.417V16.0415C15.417 16.152 15.3731 16.258 15.295 16.3361C15.2168 16.4143 15.1108 16.4582 15.0003 16.4582C14.8898 16.4582 14.7838 16.4143 14.7057 16.3361C14.6276 16.258 14.5837 16.152 14.5837 16.0415V15.4165H13.9587C13.8482 15.4165 13.7422 15.3726 13.664 15.2945C13.5859 15.2163 13.542 15.1103 13.542 14.9998C13.542 14.8893 13.5859 14.7833 13.664 14.7052C13.7422 14.6271 13.8482 14.5832 13.9587 14.5832H14.5837V13.9582C14.5837 13.8477 14.6276 13.7417 14.7057 13.6635C14.7838 13.5854 14.8898 13.5415 15.0003 13.5415C15.1108 13.5415 15.2168 13.5854 15.295 13.6635C15.3731 13.7417 15.417 13.8477 15.417 13.9582V14.5832H16.042C16.1525 14.5832 16.2585 14.6271 16.3366 14.7052C16.4148 14.7833 16.4587 14.8893 16.4587 14.9998C16.4587 15.1103 16.4148 15.2163 16.3366 15.2945C16.2585 15.3726 16.1525 15.4165 16.042 15.4165Z" fill="white"/>
</svg>
