<svg width="100" height="92" viewBox="0 0 100 92" fill="none" xmlns="http://www.w3.org/2000/svg">
<path d="M52.8533 27.8624C51.4955 26.5045 49.2327 26.5045 47.8759 27.8624L15.5197 62.4814L29.3221 59.9927C29.3221 59.9927 44.2554 44.6065 47.4241 41.2129C48.5549 40.081 49.4608 39.855 50.3657 39.855C51.2706 39.855 52.4025 40.081 53.3074 41.2129C56.475 44.3806 71.4094 59.9927 71.4094 59.9927L85.2118 62.4814L52.8533 27.8624Z" fill="url(#paint0_linear_27_1357)"/>
<path d="M99.9926 57.3825V34.8566C99.9926 34.3819 99.9926 30.1142 97.9629 26.32C95.4829 22.0523 91.4236 19.6811 91.4236 19.4432C91.1984 19.4432 90.0704 18.7317 88.4922 17.7835C80.826 13.5158 62.7873 3.31947 57.1508 1.18504C54.896 0.473567 52.8663 0 50.6115 0H50.3863C48.3566 0 46.1018 0.474711 43.847 1.18504C38.2104 3.31947 20.1718 13.5146 12.5055 17.7835C10.9273 18.7317 9.79933 19.4432 9.34902 19.4432C9.12386 19.4432 5.06451 22.0512 2.80967 26.0821C1.00624 30.113 1.00624 34.6187 1.00624 34.6187V57.1446C1.00624 57.3813 0.78108 61.887 3.03591 65.6811C5.5159 69.9489 9.57524 72.32 9.57524 72.5568C9.8004 72.7936 10.9284 73.2683 12.5066 74.2165C20.1728 78.4842 37.9852 88.6805 43.848 90.815C46.1029 91.5264 48.1326 92 50.3874 92H50.6125C52.6422 92 54.897 91.5253 57.1519 90.815C62.7884 88.6805 80.8271 78.4854 88.4933 74.2165C90.0715 73.2683 91.1995 72.5568 91.6498 72.5568C91.875 72.5568 95.9332 69.9488 98.1891 65.9179C100.218 61.8881 99.9926 57.3825 99.9926 57.3825ZM96.6109 57.3825C96.6109 57.6193 96.6109 61.1766 95.0326 63.7846C93.4543 66.6305 90.2978 68.7638 89.8464 69.2385C89.6212 69.2385 89.395 69.4753 88.7195 69.7132C66.6226 82.2807 58.7312 86.3116 55.7998 87.2599C53.9964 87.9714 52.1919 88.2081 50.3885 88.2081H50.1633C48.3599 88.2081 46.5553 87.9714 44.7519 87.2599C40.9188 85.8369 29.1944 79.6727 11.8323 69.7132C11.3809 69.4764 10.9305 69.2385 10.9305 69.2385C10.7054 69.2385 7.54884 67.1041 5.51917 63.7846C3.94089 61.1766 3.94089 57.6193 3.94089 57.3825V34.8566C3.94089 34.6198 3.94089 31.0625 5.51917 28.4545C7.09744 25.6097 10.254 23.4753 10.7054 23.0006C10.9305 23.0006 11.1568 22.7638 11.6071 22.5259C28.9692 12.5675 40.6937 6.40214 44.5268 4.97918C46.3302 4.26771 48.1347 4.03095 49.9381 4.03095H50.6147C52.4181 4.03095 54.2227 4.26771 56.0261 4.97918C59.8592 6.40214 71.5836 12.5663 88.9457 22.5259C89.3971 22.7626 89.8475 23.0006 89.8475 23.0006C90.0726 23.0006 93.2292 25.3718 95.2589 28.4545C96.8371 31.3004 96.8371 34.8566 96.8371 34.8566L96.6109 57.3825Z" fill="url(#paint1_linear_27_1357)"/>
<path d="M74.8018 26.7305C77.8014 26.7305 80.2322 29.1625 80.2322 32.1609C80.2322 35.1604 77.8003 37.5913 74.8018 37.5913C71.8023 37.5913 69.3715 35.1594 69.3715 32.1609C69.3715 29.1625 71.8023 26.7305 74.8018 26.7305Z" fill="url(#paint2_linear_27_1357)"/>
<defs>
<linearGradient id="paint0_linear_27_1357" x1="50.3657" y1="26.844" x2="50.3657" y2="62.4814" gradientUnits="userSpaceOnUse">
<stop stop-color="#62E251"/>
<stop offset="1" stop-color="#0C1323"/>
</linearGradient>
<linearGradient id="paint1_linear_27_1357" x1="50.5" y1="18.4" x2="50.5" y2="110.4" gradientUnits="userSpaceOnUse">
<stop stop-color="#557451"/>
<stop offset="1" stop-color="#0B0F1D"/>
</linearGradient>
<linearGradient id="paint2_linear_27_1357" x1="74.8019" y1="26.7305" x2="74.8019" y2="37.5913" gradientUnits="userSpaceOnUse">
<stop stop-color="#62E251"/>
<stop offset="1" stop-color="#0C1323"/>
</linearGradient>
</defs>
</svg>
