<svg width="12" height="13" viewBox="0 0 12 13" fill="none" xmlns="http://www.w3.org/2000/svg">
<path d="M8.37499 2.28V1.5C8.37499 1.295 8.20499 1.125 7.99999 1.125C7.79499 1.125 7.62499 1.295 7.62499 1.5V2.25H4.37499V1.5C4.37499 1.295 4.20499 1.125 3.99999 1.125C3.79499 1.125 3.62499 1.295 3.62499 1.5V2.28C2.27499 2.405 1.61999 3.21 1.51999 4.405C1.50999 4.55 1.62999 4.67 1.76999 4.67H10.23C10.375 4.67 10.495 4.545 10.48 4.405C10.38 3.21 9.72499 2.405 8.37499 2.28Z" fill="white"/>
<path d="M10 5.42001H2C1.725 5.42001 1.5 5.64501 1.5 5.92001V9.00001C1.5 10.5 2.25 11.5 4 11.5H8C9.75 11.5 10.5 10.5 10.5 9.00001V5.92001C10.5 5.64501 10.275 5.42001 10 5.42001ZM4.605 9.60501C4.58 9.62501 4.555 9.65001 4.53 9.66501C4.5 9.68501 4.47 9.70001 4.44 9.71001C4.41 9.72501 4.38 9.73501 4.35 9.74001C4.315 9.74501 4.285 9.75001 4.25 9.75001C4.185 9.75001 4.12 9.73501 4.06 9.71001C3.995 9.68501 3.945 9.65001 3.895 9.60501C3.805 9.51001 3.75 9.38001 3.75 9.25001C3.75 9.12001 3.805 8.99001 3.895 8.89501C3.945 8.85001 3.995 8.81501 4.06 8.79001C4.15 8.75001 4.25 8.74001 4.35 8.76001C4.38 8.76501 4.41 8.77501 4.44 8.79001C4.47 8.80001 4.5 8.81501 4.53 8.83501C4.555 8.85501 4.58 8.87501 4.605 8.89501C4.695 8.99001 4.75 9.12001 4.75 9.25001C4.75 9.38001 4.695 9.51001 4.605 9.60501ZM4.605 7.85501C4.51 7.94501 4.38 8.00001 4.25 8.00001C4.12 8.00001 3.99 7.94501 3.895 7.85501C3.805 7.76001 3.75 7.63001 3.75 7.50001C3.75 7.37001 3.805 7.24001 3.895 7.14501C4.035 7.00501 4.255 6.96001 4.44 7.04001C4.505 7.06501 4.56 7.10001 4.605 7.14501C4.695 7.24001 4.75 7.37001 4.75 7.50001C4.75 7.63001 4.695 7.76001 4.605 7.85501ZM6.355 9.60501C6.26 9.69501 6.13 9.75001 6 9.75001C5.87 9.75001 5.74 9.69501 5.645 9.60501C5.555 9.51001 5.5 9.38001 5.5 9.25001C5.5 9.12001 5.555 8.99001 5.645 8.89501C5.83 8.71001 6.17 8.71001 6.355 8.89501C6.445 8.99001 6.5 9.12001 6.5 9.25001C6.5 9.38001 6.445 9.51001 6.355 9.60501ZM6.355 7.85501C6.33 7.87501 6.305 7.89501 6.28 7.91501C6.25 7.93501 6.22 7.95001 6.19 7.96001C6.16 7.97501 6.13 7.98501 6.1 7.99001C6.065 7.99501 6.035 8.00001 6 8.00001C5.87 8.00001 5.74 7.94501 5.645 7.85501C5.555 7.76001 5.5 7.63001 5.5 7.50001C5.5 7.37001 5.555 7.24001 5.645 7.14501C5.69 7.10001 5.745 7.06501 5.81 7.04001C5.995 6.96001 6.215 7.00501 6.355 7.14501C6.445 7.24001 6.5 7.37001 6.5 7.50001C6.5 7.63001 6.445 7.76001 6.355 7.85501ZM8.105 9.60501C8.01 9.69501 7.88 9.75001 7.75 9.75001C7.62 9.75001 7.49 9.69501 7.395 9.60501C7.305 9.51001 7.25 9.38001 7.25 9.25001C7.25 9.12001 7.305 8.99001 7.395 8.89501C7.58 8.71001 7.92 8.71001 8.105 8.89501C8.195 8.99001 8.25 9.12001 8.25 9.25001C8.25 9.38001 8.195 9.51001 8.105 9.60501ZM8.105 7.85501C8.08 7.87501 8.055 7.89501 8.03 7.91501C8 7.93501 7.97 7.95001 7.94 7.96001C7.91 7.97501 7.88 7.98501 7.85 7.99001C7.815 7.99501 7.78 8.00001 7.75 8.00001C7.62 8.00001 7.49 7.94501 7.395 7.85501C7.305 7.76001 7.25 7.63001 7.25 7.50001C7.25 7.37001 7.305 7.24001 7.395 7.14501C7.445 7.10001 7.495 7.06501 7.56 7.04001C7.65 7.00001 7.75 6.99001 7.85 7.01001C7.88 7.01501 7.91 7.02501 7.94 7.04001C7.97 7.05001 8 7.06501 8.03 7.08501C8.055 7.10501 8.08 7.12501 8.105 7.14501C8.195 7.24001 8.25 7.37001 8.25 7.50001C8.25 7.63001 8.195 7.76001 8.105 7.85501Z" fill="white"/>
</svg>
