<svg width="16" height="16" viewBox="0 0 16 16" fill="none" xmlns="http://www.w3.org/2000/svg">
<path d="M4.50668 14.6667H11.4933C13.3333 14.6667 14.0667 13.54 14.1533 12.1667L14.5 6.66001C14.5933 5.22001 13.4467 4.00001 12 4.00001C11.5933 4.00001 11.22 3.76668 11.0333 3.40668L10.5533 2.44001C10.2467 1.83334 9.44668 1.33334 8.76668 1.33334H7.24001C6.55334 1.33334 5.75334 1.83334 5.44668 2.44001L4.96668 3.40668C4.78001 3.76668 4.40668 4.00001 4.00001 4.00001C2.55334 4.00001 1.40668 5.22001 1.50001 6.66001L1.84668 12.1667C1.92668 13.54 2.66668 14.6667 4.50668 14.6667Z" stroke="white" stroke-width="1.5" stroke-linecap="round" stroke-linejoin="round"/>
<path opacity="0.4" d="M7 5.33334H9" stroke="white" stroke-width="1.5" stroke-linecap="round" stroke-linejoin="round"/>
<path opacity="0.4" d="M8.00001 12C9.19334 12 10.1667 11.0267 10.1667 9.83332C10.1667 8.63999 9.19334 7.66666 8.00001 7.66666C6.80668 7.66666 5.83334 8.63999 5.83334 9.83332C5.83334 11.0267 6.80668 12 8.00001 12Z" stroke="white" stroke-width="1.5" stroke-linecap="round" stroke-linejoin="round"/>
</svg>
