<svg width="12" height="13" viewBox="0 0 12 13" fill="none" xmlns="http://www.w3.org/2000/svg">
<path d="M4.73502 8.13996C4.64002 8.13996 4.54502 8.10496 4.47002 8.02996C4.06002 7.61996 3.83502 7.07496 3.83502 6.49996C3.83502 5.30496 4.80502 4.33496 6.00002 4.33496C6.57502 4.33496 7.12002 4.55996 7.53002 4.96996C7.60002 5.03996 7.64002 5.13496 7.64002 5.23496C7.64002 5.33496 7.60002 5.42996 7.53002 5.49996L5.00002 8.02996C4.92502 8.10496 4.83002 8.13996 4.73502 8.13996ZM6.00002 5.08496C5.22002 5.08496 4.58502 5.71996 4.58502 6.49996C4.58502 6.74996 4.65002 6.98996 4.77002 7.19996L6.70002 5.26996C6.49002 5.14996 6.25002 5.08496 6.00002 5.08496Z" fill="#FAFAFA"/>
<path d="M2.79998 9.75499C2.71498 9.75499 2.62498 9.72499 2.55498 9.66499C2.01998 9.20999 1.53998 8.64999 1.12998 7.99999C0.599983 7.17499 0.599983 5.82999 1.12998 4.99999C2.34998 3.08999 4.12498 1.98999 5.99998 1.98999C7.09998 1.98999 8.18498 2.36999 9.13498 3.08499C9.29998 3.20999 9.33498 3.44499 9.20998 3.60999C9.08498 3.77499 8.84998 3.80999 8.68498 3.68499C7.86498 3.06499 6.93498 2.73999 5.99998 2.73999C4.38498 2.73999 2.83998 3.70999 1.75998 5.40499C1.38498 5.98999 1.38498 7.00999 1.75998 7.59499C2.13498 8.17999 2.56498 8.68499 3.03998 9.09499C3.19498 9.22999 3.21498 9.46499 3.07998 9.62499C3.00998 9.70999 2.90498 9.75499 2.79998 9.75499Z" fill="#FAFAFA"/>
<path d="M6 11.01C5.335 11.01 4.685 10.875 4.06 10.61C3.87 10.53 3.78 10.31 3.86 10.12C3.94 9.93 4.16 9.84 4.35 9.92C4.88 10.145 5.435 10.26 5.995 10.26C7.61 10.26 9.155 9.29 10.235 7.595C10.61 7.01 10.61 5.99 10.235 5.405C10.08 5.16 9.91 4.925 9.73 4.705C9.6 4.545 9.625 4.31 9.785 4.175C9.945 4.045 10.18 4.065 10.315 4.23C10.51 4.47 10.7 4.73 10.87 5C11.4 5.825 11.4 7.17 10.87 8C9.65 9.91 7.875 11.01 6 11.01Z" fill="#FAFAFA"/>
<path d="M6.34498 8.63499C6.16998 8.63499 6.00998 8.50999 5.97498 8.32999C5.93498 8.12499 6.06998 7.92999 6.27498 7.89499C6.82498 7.79499 7.28498 7.33499 7.38498 6.78499C7.42498 6.57999 7.61998 6.44999 7.82498 6.48499C8.02998 6.52499 8.16498 6.71999 8.12498 6.92499C7.96498 7.78999 7.27498 8.47499 6.41498 8.63499C6.38998 8.62999 6.36998 8.63499 6.34498 8.63499Z" fill="#FAFAFA"/>
<path d="M1 11.875C0.905001 11.875 0.810001 11.84 0.735001 11.765C0.590001 11.62 0.590001 11.38 0.735001 11.235L4.47 7.49999C4.615 7.35499 4.855 7.35499 5 7.49999C5.145 7.64499 5.145 7.88499 5 8.02999L1.265 11.765C1.19 11.84 1.095 11.875 1 11.875Z" fill="#FAFAFA"/>
<path d="M7.26499 5.60997C7.16999 5.60997 7.07499 5.57497 6.99999 5.49997C6.85499 5.35497 6.85499 5.11497 6.99999 4.96997L10.735 1.23497C10.88 1.08997 11.12 1.08997 11.265 1.23497C11.41 1.37997 11.41 1.61997 11.265 1.76497L7.52999 5.49997C7.45499 5.57497 7.35999 5.60997 7.26499 5.60997Z" fill="#FAFAFA"/>
</svg>
